<?xml version="1.0" encoding="utf-8"?>
<!-- Svg Vector Icons : http://www.onlinewebfonts.com/icon -->
<!DOCTYPE svg PUBLIC "-//W3C//DTD SVG 1.1//EN" "http://www.w3.org/Graphics/SVG/1.1/DTD/svg11.dtd">
<svg version="1.1" xmlns="http://www.w3.org/2000/svg" xmlns:xlink="http://www.w3.org/1999/xlink" x="0px" y="0px" viewBox="0 0 256 256" enable-background="new 0 0 256 256" xml:space="preserve">
<metadata> Svg Vector Icons : http://www.onlinewebfonts.com/icon </metadata>
<g><g><path fill="#000000" d="M215.2,183.9v30.7h-20.5v-30.7h-30.8v-20.5h30.8v-30.8h20.5v30.8H246v20.5H215.2z M51,109.3c0-7.1,5.8-12.9,12.9-12.9c7.1,0,12.9,5.8,12.9,12.9c0,7.1-5.8,12.9-12.9,12.9C56.8,122.2,51,116.4,51,109.3z M102.3,109.3c0-7.1,5.8-12.9,12.9-12.9c7.1,0,12.9,5.8,12.9,12.9c0,7.1-5.8,12.9-12.9,12.9C108.1,122.2,102.3,116.4,102.3,109.3z M166.5,96.6c7.1,0,12.9,5.8,12.9,12.9c0,7.1-5.8,12.9-12.9,12.9c-7.1,0-12.9-5.8-12.9-12.9C153.6,102.3,159.4,96.6,166.5,96.6z M205,65.9c0-11.3-9.2-20.5-20.5-20.5H45.9c-11.3,0-20.5,9.2-20.5,20.5v92.4c0,11.3,9.2,20.5,20.5,20.5h107.7v15.4H69.4L40.8,226v-31.9H30.5c-11.3,0-20.5-9.2-20.5-20.5V50.5C10,39.1,19.2,30,30.5,30h169.3c11.3,0,20.5,9.2,20.5,20.5v71.8h-15.4L205,65.9L205,65.9z"/></g></g>
</svg>